<?xml version="1.0" encoding="UTF-8"?>
<!-- Vibe Tavern icon source. GENERATED by scripts/generate-logo-assets.py.
     Path data mirrors apps/web/src/components/shared/vt-logo.ts; colors are the
     coffee-theme accent tokens baked to sRGB (icons can't use CSS variables).
     Do not edit by hand — re-run the generator. -->
<svg xmlns="http://www.w3.org/2000/svg" viewBox="0 -55.5 286 286" fill="none">
  <path d="M228.277 60.5653L169.085 141.858L261.622 83.8188L269.364 96.163L176.183 154.606L281.244 126.197L285.047 140.264L159.958 174.088C158.598 165.58 151.226 159.078 142.334 159.078C133.476 159.078 126.127 165.53 124.726 173.99L0 140.264L3.80371 126.197L108.864 154.606L15.6831 96.163L23.4258 83.8188L115.962 141.858L56.7705 60.5653L68.5498 51.9882L142.523 153.582L216.498 51.9882L228.277 60.5653Z" fill="#95671C"/>
      <path d="M165.904 2.23722C166.998 -0.68871 171.137 -0.68873 172.23 2.23722L178.572 19.1986C178.86 19.9707 179.422 20.6109 180.149 20.998L192.127 27.3681C194.515 28.6384 194.515 32.0607 192.127 33.331L180.149 39.7011C179.422 40.0881 178.86 40.7283 178.572 41.5004L172.23 58.4618C171.137 61.3878 166.998 61.3878 165.904 58.4618L159.563 41.5004C159.274 40.7283 158.713 40.0881 157.985 39.7011L146.008 33.331C143.62 32.0607 143.62 28.6384 146.008 27.3681L157.985 20.998C158.713 20.6109 159.274 19.9707 159.563 19.1986L165.904 2.23722Z" fill="#D79628"/>
      <path d="M122.963 49.1806C123.338 48.1762 124.759 48.1762 125.135 49.1806L129.501 60.8603C129.6 61.1253 129.793 61.3451 130.042 61.4779L138.271 65.8539C139.091 66.29 139.091 67.4652 138.271 67.9013L130.042 72.2777C129.793 72.4106 129.6 72.63 129.501 72.8949L125.135 84.5746C124.759 85.579 123.338 85.579 122.963 84.5746L118.597 72.8949C118.498 72.63 118.305 72.4106 118.055 72.2777L109.826 67.9013C109.006 67.4652 109.006 66.29 109.826 65.8539L118.055 61.4779C118.305 61.3451 118.498 61.1253 118.597 60.8603L122.963 49.1806Z" fill="#D79628"/>
      <path d="M110.472 0.778726C110.86 -0.259575 112.329 -0.259575 112.717 0.778726L115.842 9.1381C115.945 9.41208 116.144 9.63943 116.402 9.77677L122.297 12.912C123.145 13.3628 123.145 14.5775 122.297 15.0282L116.402 18.164C116.144 18.3013 115.945 18.5282 115.842 18.8022L112.717 27.1615C112.329 28.1998 110.86 28.1998 110.472 27.1615L107.347 18.8022C107.244 18.5282 107.045 18.3013 106.787 18.164L100.891 15.0282C100.044 14.5775 100.044 13.3628 100.891 12.912L106.787 9.77677C107.045 9.63942 107.244 9.41209 107.347 9.1381L110.472 0.778726Z" fill="#D79628"/>
</svg>
