<?xml version="1.0" encoding="UTF-8" standalone="no"?>
<svg
   width="1116"
   height="947"
   viewBox="0 0 1116 947"
   fill="none"
   version="1.1"
   id="svg18"
   sodipodi:docname="уменьшенное лого.svg"
   inkscape:version="1.3.2 (091e20e, 2023-11-25, custom)"
   xmlns:inkscape="http://www.inkscape.org/namespaces/inkscape"
   xmlns:sodipodi="http://sodipodi.sourceforge.net/DTD/sodipodi-0.dtd"
   xmlns="http://www.w3.org/2000/svg"
   xmlns:svg="http://www.w3.org/2000/svg">
  <sodipodi:namedview
     id="namedview1"
     pagecolor="#ffffff"
     bordercolor="#999999"
     borderopacity="1"
     inkscape:showpageshadow="2"
     inkscape:pageopacity="0"
     inkscape:pagecheckerboard="0"
     inkscape:deskcolor="#d1d1d1"
     inkscape:zoom="1.2618796"
     inkscape:cx="624.86151"
     inkscape:cy="445.7636"
     inkscape:window-width="2560"
     inkscape:window-height="1387"
     inkscape:window-x="1592"
     inkscape:window-y="-8"
     inkscape:window-maximized="1"
     inkscape:current-layer="g18" />
  <g
     clip-path="url(#clip0_0_1)"
     id="g18"
     transform="translate(36.453557,-2.3774057)">
    <path
       fill-rule="evenodd"
       clip-rule="evenodd"
       d="m 853.627,166.875 c 3.28,-0.009 6.227,0.075 9.375,1.125 2.229,5.46 2.285,11.63 2.23,17.448 0.132,106.423 -0.293,214.527 -0.716,321.986 v 0.046 c -0.189,47.87 -0.376,95.612 -0.514,143.02 C 716.502,661 633,685 531.5,741 c -0.643,-4.5 -0.646,-8.513 -0.643,-12.93 -0.185,-49.26 -0.23,-98.52 -0.274,-147.78 -0.035,-38.399 -0.07,-76.799 -0.172,-115.198 -0.04,-15.545 -0.099,-31.092 -0.157,-46.639 -0.162,-43.564 -0.325,-87.133 -0.108,-130.692 0.004,-1.782 -0.044,-3.545 -0.091,-5.287 0.199,-11.474 -0.461,-16.925 5.955,-23.974 85.99,-56 210.992,-82 317.617,-91.625 z m -292.361,134.491 -0.178,17.871 c 45.328,-32.665 182.194,-68.622 270.295,-78.257 0.296,-3.496 0.168,-16.82 0.168,-16.82 -95.116,11.142 -227.98,46.865 -270.285,77.206 z m -0.587,58.869 -0.179,17.871 c 45.328,-32.665 182.195,-68.622 270.296,-78.257 0.296,-3.496 0.167,-16.82 0.167,-16.82 -95.115,11.142 -227.98,46.865 -270.284,77.206 z m 1.885,312.265 0.178,-17.871 c 42.305,-30.341 175.169,-66.064 270.285,-77.205 0,0 0.129,13.323 -0.168,16.819 -88.1,9.635 -224.967,45.592 -270.295,78.257 z m -1.254,-74.754 -0.179,17.871 c 45.329,-32.665 182.195,-68.622 270.296,-78.257 0.296,-3.496 0.168,-16.819 0.168,-16.819 -95.116,11.141 -227.981,46.864 -270.285,77.205 z m 0.409,-40.998 0.178,-17.871 c 42.305,-30.341 175.169,-66.064 270.285,-77.205 0,0 0.129,13.324 -0.168,16.82 -88.1,9.634 -224.967,45.591 -270.295,78.256 z m -0.195,-80.761 -0.178,17.871 c 45.328,-32.665 182.195,-68.623 270.295,-78.257 0.297,-3.496 0.168,-16.82 0.168,-16.82 -95.116,11.142 -227.98,46.865 -270.285,77.206 z m 0.409,-40.998 0.178,-17.871 c 42.305,-30.341 175.169,-66.064 270.285,-77.206 0,0 0.129,13.324 -0.168,16.82 -88.1,9.635 -224.967,45.592 -270.295,78.257 z"
       fill="#7c736d"
       id="path1"
       style="fill:#b4afab;fill-opacity:1" />
    <path
       fill-rule="evenodd"
       clip-rule="evenodd"
       d="m 194.659,166.875 c -3.28,-0.009 -6.227,0.075 -9.375,1.125 -2.229,5.46 -2.285,11.63 -2.23,17.448 -0.132,106.423 0.293,214.527 0.716,321.986 v 0.046 c 0.189,47.87 0.377,95.612 0.514,143.02 147.5,10.5 231,34.5 332.5,90.5 0.643,-4.5 0.646,-8.513 0.643,-12.93 0.186,-49.26 0.23,-98.52 0.275,-147.78 0.035,-38.399 0.07,-76.799 0.171,-115.198 0.041,-15.545 0.099,-31.092 0.157,-46.639 0.163,-43.564 0.326,-87.133 0.108,-130.692 -0.003,-1.782 0.045,-3.545 0.092,-5.287 -0.2,-10.474 0.46,-16.925 -5.956,-23.974 -85.99,-56 -210.99,-82 -317.615,-91.625 z m 292.36,134.491 0.178,17.871 C 441.869,286.572 305.004,250.615 216.903,240.98 c -0.296,-3.496 -0.168,-16.82 -0.168,-16.82 95.116,11.142 227.979,46.865 270.284,77.206 z m 0.587,58.869 0.178,17.871 C 442.456,345.441 305.591,309.484 217.49,299.849 c -0.296,-3.496 -0.167,-16.82 -0.167,-16.82 95.115,11.142 227.978,46.865 270.283,77.206 z m -1.885,312.265 -0.179,-17.871 c -42.304,-30.341 -175.167,-66.064 -270.283,-77.205 0,0 -0.129,13.323 0.168,16.819 88.1,9.635 224.965,45.592 270.294,78.257 z m 1.254,-74.754 0.178,17.871 C 441.825,582.952 304.96,546.995 216.859,537.36 c -0.296,-3.496 -0.167,-16.819 -0.167,-16.819 95.115,11.141 227.978,46.864 270.283,77.205 z m -0.409,-40.998 -0.178,-17.871 C 444.083,508.536 311.22,472.813 216.104,461.672 c 0,0 -0.128,13.324 0.168,16.819 88.101,9.635 224.966,45.592 270.294,78.257 z m 0.195,-80.761 0.178,17.871 c -45.328,-32.665 -182.194,-68.623 -270.294,-78.257 -0.297,-3.496 -0.168,-16.82 -0.168,-16.82 95.116,11.142 227.979,46.864 270.284,77.206 z m -0.409,-40.998 -0.179,-17.871 C 443.869,386.777 311.006,351.054 215.89,339.912 c 0,0 -0.129,13.324 0.168,16.82 88.1,9.635 224.966,45.592 270.294,78.257 z"
       fill="#7c736d"
       id="path2"
       style="fill:#b4afab;fill-opacity:1" />
    <path
       d="m 172.12,191 c 0,4.5 0.015,6.853 0,10.592 C 172.287,332.165 173,536.5 173,660 c 40.172,5.03 234,21.5 315.5,82.5 C 394,701 256.5,679 158,672 c 0,-12 -2.38,-445.5 -2.38,-454.915 0,-19.085 3,-26.085 16.5,-26.085 z"
       fill="#7c736d"
       id="path3" />
    <path
       d="m 874.38,191 c 0,4.5 -0.015,6.853 0,10.592 C 874.213,332.165 873.5,536.5 873.5,660 833.328,665.03 639.5,681.5 558,742.5 652.5,701 790,679 888.5,672 c 0,-12 2.38,-445.5 2.38,-454.915 0,-19.085 -3,-26.085 -16.5,-26.085 z"
       fill="#7c736d"
       id="path4" />
    <path
       d="m 136.995,208.5 v 7.501 c -7.5,1.999 -11,4.499 -13.5,8.499 -2.5,4 -2.973,12.433 -3,17.022 -0.111,18.478 1,446.478 1,459.978 55.247,5 297.431,45.064 340.505,55.501 15,3.634 26.5,19.499 63.5,19.499 V 804 C 481.489,804 470,784 443.807,778.813 384.495,764.223 220.711,737.26 108.119,724.563 94.952,722.192 91.8375,707.216 91.86,695.809 91.8893,681 91.489,258.5 91.489,241.522 91.3761,222.065 92.9925,219.834 96.488,215.009 L 96.4945,215 c 3.5001,-4.831 26.4215,-6.5 40.5005,-6.5 z"
       fill="#7c736d"
       id="path5"
       style="fill:#474340;fill-opacity:1" />
    <path
       d="m 913.438,208 v 7.501 c 7.509,1.999 11.012,4.499 13.515,8.499 2.503,4 2.976,12.433 3.004,17.022 C 930.067,259.5 928.955,687.5 928.955,701 873.646,706 631.193,746.064 588.07,756.501 573.054,760.135 562.041,776.5 525,776.5 V 804 c 44.06,0 55.061,-20.5 81.283,-25.687 59.379,-14.59 223.345,-41.553 336.063,-54.25 13.182,-2.371 16.3,-17.347 16.277,-28.754 -0.029,-14.809 0.371,-437.309 0.371,-454.287 0.114,-19.457 -1.505,-21.688 -5.004,-26.513 l -0.007,-0.009 c -3.504,-4.831 -26.451,-6.5 -40.545,-6.5 z"
       fill="#7c736d"
       id="path6"
       style="fill:#474340;fill-opacity:1" />
    <path
       d="m 147,226 c 0,17.5 1.5,449 1.5,457 107,10 236,26.5 322.5,64 -124,-34.5 -324.5,-54 -340,-54 0,-12.5 0.458,-301.27 1,-451.5 0.028,-7.827 6.5,-15.5 15,-15.5 z"
       fill="#7c736d"
       id="path7" />
    <path
       d="m 900,226 c 0,17.5 -1.5,449 -1.5,457 -107,10 -236,26.5 -322.5,64 124,-34.5 324.5,-54 340,-54 0,-12.5 -0.458,-301.27 -1,-451.5 -0.028,-7.827 -6.5,-15.5 -15,-15.5 z"
       fill="#7c736d"
       id="path8" />
    <mask
       id="path-8-outside-1_0_1"
       maskUnits="userSpaceOnUse"
       x="270"
       y="326"
       width="248"
       height="247"
       fill="#000000">
      <rect
         fill="#ffffff"
         x="270"
         y="326"
         width="248"
         height="247"
         id="rect9" />
      <path
         d="m 399.3,565.45 -2.1,-2.8 1.75,-24.85 c 7.467,-0.7 12.95,-1.4 16.45,-2.1 3.5,-0.7 5.833,-1.75 7,-3.15 1.167,-1.633 1.75,-3.967 1.75,-7 0,-1.167 -0.117,-2.45 -0.35,-3.85 -0.233,-1.633 -0.583,-3.5 -1.05,-5.6 l -5.25,-21 c -4.433,-0.233 -9.567,-0.35 -15.4,-0.35 -5.833,-0.233 -10.617,-0.35 -14.35,-0.35 -4.667,0 -9.917,0.233 -15.75,0.7 -5.6,0.467 -10.733,0.933 -15.4,1.4 l -6.3,21.7 c -1.167,4.667 -1.75,7.933 -1.75,9.8 0,3.5 0.933,5.95 2.8,7.35 2.1,1.167 5.833,1.75 11.2,1.75 h 12.6 l 2.1,2.8 -2.8,24.85 c 0,0 -2.917,-0.233 -8.75,-0.7 -5.6,-0.233 -12.367,-0.467 -20.3,-0.7 -7.933,0 -15.633,0 -23.1,0 -6.767,0 -13.533,0 -20.3,0 -6.767,0 -12.483,0 -17.15,0 -4.433,0.233 -6.65,0.35 -6.65,0.35 l 2.45,-26.25 c 4.9,-0.933 8.983,-3.033 12.25,-6.3 3.5,-3.267 6.3,-8.283 8.4,-15.05 l 59.5,-176.75 71.05,-5.6 4.55,2.8 c 0,0 0.7,3.15 2.1,9.45 1.633,6.3 3.85,14.7 6.65,25.2 2.8,10.5 5.833,22.167 9.1,35 3.5,12.833 7,25.9 10.5,39.2 3.5,13.3 6.883,25.9 10.15,37.8 3.267,11.9 6.183,22.05 8.75,30.45 2.333,8.167 5.25,14.117 8.75,17.85 3.733,3.5 8.983,5.483 15.75,5.95 l 2.1,3.15 -2.8,23.45 c 0,0 -2.683,-0.117 -8.05,-0.35 -5.133,0 -11.317,-0.117 -18.55,-0.35 -7,0 -13.3,0 -18.9,0 -10.5,0 -20.533,0.117 -30.1,0.35 -9.567,0.467 -17.383,0.817 -23.45,1.05 -6.067,0.467 -9.1,0.7 -9.1,0.7 z M 366.4,460.8 h 21.7 c 3.267,0 7,-0.117 11.2,-0.35 4.433,-0.233 8.283,-0.467 11.55,-0.7 l -16.8,-70.7 h -5.95 z"
         id="path10" />
    </mask>
    <path
       d="m 359.60169,625.92139 c -0.9924,-1.41181 -1.97718,-2.82924 -2.95461,-4.25274 -0.98951,-10.7039 -1.33082,-21.79187 -1.22724,-33.22609 8.50957,1.33494 14.77722,2.23942 18.8763,2.49542 4.06584,0.25393 6.7857,-0.34732 8.13679,-1.8941 1.3427,-1.87369 1.99894,-4.9676 1.99467,-9.34664 -0.002,-1.68515 -0.13774,-3.59011 -0.4054,-5.72163 -0.2655,-2.47216 -0.65956,-5.34397 -1.17578,-8.63125 -1.95135,-11.01375 -3.75544,-22.34336 -5.45953,-33.86831 -5.32781,-1.93773 -11.44834,-3.90042 -18.21439,-5.79744 -2.24589,-0.75139 -4.34258,-1.43386 -6.29541,-2.05104 -3.88793,-1.23112 -7.21992,-2.2059 -10.01954,-2.94462 -5.24014,-1.3827 -11.10365,-2.51638 -17.60134,-3.35572 -0.48344,-0.0601 -0.96367,-0.11915 -1.44073,-0.17694 -5.67788,-0.67556 -10.86741,-1.17889 -15.61711,-1.54506 -2.75175,10.7219 -5.38548,21.18034 -7.85168,31.41806 -1.37902,6.63538 -2.0171,11.26211 -1.99958,13.96639 0.0329,5.0771 1.16155,8.7965 3.32049,11.23284 2.41748,2.16183 6.65419,3.85841 12.6957,5.18503 3.06133,0.6722 6.11533,1.35786 9.17861,2.06151 1.66812,0.38565 3.33419,0.7758 5.00037,1.17108 0.84533,1.50989 1.69674,3.01593 2.55435,4.5178 -0.43211,11.40764 -0.43457,22.48824 0.15497,33.26482 0,0 -1.446,-0.44641 -4.34703,-1.32716 -1.51971,-0.46124 -3.49352,-1.05759 -5.83441,-1.75771 -5.77008,-1.48074 -12.54937,-3.13351 -20.59277,-4.98918 -1.05574,-0.24358 -2.13234,-0.49001 -3.23029,-0.73924 -9.44804,-1.83852 -18.71728,-3.54132 -28.10557,-5.20168 -0.009,-0.002 -0.51165,-0.0904 -0.52161,-0.0921 -8.35782,-1.47552 -16.79565,-2.91997 -25.71941,-4.43086 -7.13195,-1.20753 -16.63557,-2.80279 -23.76753,-4.01032 -6.39074,-0.76499 -9.71547,-1.17148 -9.71547,-1.17148 1.31447,-11.142 2.7463,-24.26772 4.17997,-36.16229 7.11934,0.0615 12.8319,-1.88004 17.36317,-5.75956 4.8556,-3.82725 8.70779,-10.42092 11.8625,-19.99154 9.59693,-27.02828 21.68597,-60.80645 31.62407,-91.71853 14.77893,-45.75297 24.28634,-82.24079 36.05462,-133.27788 5.4024,-23.56775 9.9288,-44.06459 15.72487,-67.06877 3.42917,0.73453 6.89149,1.5491 10.41707,2.43494 9.2699,2.33212 18.7256,5.09084 28.7818,8.16426 11.15022,3.40714 21.88373,6.84129 33.62976,10.38642 2.99127,0.90057 6.05111,1.80962 9.19573,2.72542 -3.3e-4,-10e-5 0.31369,0.0913 0.31341,0.0913 1.77267,2.24017 3.55615,4.46524 5.34768,6.67123 0,0 0.3444,5.31177 1.28783,16.09797 1.1115,9.74739 2.66003,21.94814 4.92453,37.68933 0.30786,2.14186 0.6272,4.33838 0.95905,6.59618 2.77548,18.88321 5.92818,39.46052 9.43582,62.89925 3.88611,23.94801 7.44982,46.45929 11.11278,71.17808 2.4449,16.49902 7.50395,51.20707 9.94884,67.70609 3.13896,21.31806 5.7634,38.29349 8.27053,52.93339 1.52996,9.76314 3.56432,17.80426 6.07938,24.21311 v 0 c 1.06034,2.68384 2.19633,5.08461 3.40473,7.20772 3.1876,5.00475 7.51099,9.28778 12.86462,12.49202 v 0 c 3.97606,2.80784 4.60519,2.82997 8.35974,5.12939 -0.80098,7.35689 -2.23666,17.61584 -3.27005,24.64237 -0.60208,4.26218 -1.18194,8.21296 -1.79959,12.32308 0,0 -1.13116,-0.46492 -3.34347,-1.45195 -1.6963,-0.75708 -3.86758,-1.74746 -6.74706,-3.10306 -3.08465,-1.3021 -6.16055,-2.67936 -9.64709,-4.27346 -3.93785,-1.80474 -8.16273,-3.80269 -12.85791,-6.06439 -8.17621,-3.64897 -15.87863,-7.08868 -22.21879,-9.82091 -6.78879,-2.92555 -13.2637,-5.55896 -19.64485,-7.92796 -0.30151,-0.1123 -0.60281,-0.22406 -0.90394,-0.33526 -4.80476,-1.77439 -9.47135,-3.37353 -14.04017,-4.82344 -2.3e-4,-8e-5 -0.27538,-0.08 -0.27559,-0.0802 -10.49045,-3.04479 -19.54076,-5.2169 -26.08676,-6.72532 -6.7479,-1.26429 -10.1231,-1.77856 -10.1231,-1.77856 l 5e-5,-6e-5 z m -37.82671,-165.2906 c 1.55794,0.36389 3.11924,0.73329 4.68856,1.10916 6.37268,1.54007 12.68431,3.14704 19.19209,4.87058 2.85393,0.75583 6.05724,1.49578 9.61149,2.2262 0.99423,0.20474 2.01787,0.40934 3.07096,0.61389 5.17185,1.02647 9.64083,1.89117 13.59626,2.60549 -3.55168,-30.30938 -8.59354,-75.72552 -12.06227,-108.30309 -0.0181,-0.16832 -2.0939,-20.14721 -2.11128,-20.31433 -2.19962,-0.68753 -4.37718,-1.36311 -6.54592,-2.02865 -8.77304,37.09133 -14.26037,60.75639 -23.45603,96.35378 -2.00092,7.75079 -3.97902,15.29874 -5.98386,22.86697 z"
       fill="#251e13"
       id="path11"
       style="mix-blend-mode:normal;stroke-width:1.3916"
       sodipodi:nodetypes="sccscccccccsccccscsccccscscccsccccccccccccccccscsccsscsscccccccscssccccsccscccccccc" />
    <mask
       id="path-10-outside-2_0_1"
       maskUnits="userSpaceOnUse"
       x="596"
       y="328"
       width="127"
       height="246"
       fill="#000000">
      <rect
         fill="#ffffff"
         x="596"
         y="328"
         width="127"
         height="246"
         id="rect12" />
      <path
         d="m 604.45,565.45 2.8,-25.55 c 10.033,-2.1 16.567,-5.017 19.6,-8.75 3.033,-3.967 4.55,-10.733 4.55,-20.3 l 0.35,-129.15 c 0,-7.233 -0.933,-12.017 -2.8,-14.35 -1.633,-2.567 -4.9,-3.85 -9.8,-3.85 -1.4,0 -3.15,0.117 -5.25,0.35 -2.1,0 -3.967,0.117 -5.6,0.35 l -2.45,-3.85 2.8,-23.1 c 8.633,0 17.383,0.117 26.25,0.35 9.1,0 17.617,0 25.55,0 4.433,0 11.317,-0.233 20.65,-0.7 9.567,-0.467 20.767,-0.933 33.6,-1.4 l -2.1,26.6 c -8.4,1.167 -14,2.917 -16.8,5.25 -2.8,2.333 -4.433,6.883 -4.9,13.65 -0.467,10.267 -0.933,21.117 -1.4,32.55 -0.467,11.433 -0.933,22.983 -1.4,34.65 -0.467,11.667 -0.817,23.1 -1.05,34.3 0,10.967 0,21.117 0,30.45 0,9.8 0.817,16.333 2.45,19.6 1.867,3.033 5.25,4.55 10.15,4.55 2.333,0 4.667,-0.117 7,-0.35 2.567,-0.233 4.667,-0.467 6.3,-0.7 l 2.1,2.8 -3.15,25.55 c -5.6,-0.233 -12.017,-0.467 -19.25,-0.7 -7,-0.233 -13.767,-0.467 -20.3,-0.7 -6.3,0 -11.317,0 -15.05,0 -5.6,0 -13.3,0.233 -23.1,0.7 -9.567,0.467 -19.483,1.05 -29.75,1.75 z"
         id="path13" />
    </mask>
    <path
       d="m 629.50278,481.45884 c 7.77788,-3.71799 13.91128,-8.53346 16.73899,-13.02168 1.42347,-2.36812 2.55361,-5.32987 3.36805,-8.89474 0.8492,-3.71657 1.3538,-8.07513 1.50073,-13.09728 0.13404,-47.99502 0.067,-92.09759 -0.27788,-135.70809 0.17881,-8.55759 0.22993,-14.86935 -1.43191,-18.90186 -3.34748,-2.00674 -9.0812,2.22101 -16.14831,5.06833 -1.47278,0.70547 -3.98427,2.2936 -5.37226,2.75047 -0.1626,-1.24596 -0.0533,-2.1063 -0.26112,-3.57298 -0.24703,-5.64414 -0.54021,-11.28459 -0.89306,-17.01739 -0.19416,-3.15447 -0.40476,-6.31086 -0.63444,-9.50598 5.53737,-3.05713 13.36837,-6.28278 22.32471,-9.32555 9.37147,-3.46875 19.17608,-6.56947 28.49337,-9.04265 0.007,-0.002 0.537,-0.14294 0.54443,-0.14491 1.65059,-0.44084 4.59319,-1.24037 6.24378,-1.6812 4.81872,-1.29227 10.11691,-2.68079 16.68409,-4.16345 10.06217,-2.25854 20.24715,-3.77825 25.25901,-4.12925 -1.62048,10.04017 -1.10563,20.0899 -1.68447,30.4499 -4.09923,1.20346 -13.13184,2.62745 -16.75558,5.19361 -3.46425,2.45321 -2.44852,12.30732 -3.01324,17.40579 -1.19003,46.07335 -1.32505,92.90779 -0.86097,139.32651 l 0.0299,0.77259 c 0.38695,10.03225 -0.20993,15.72138 1.41038,18.69669 1.81922,2.66615 4.64405,5.29897 9.04549,4.38388 8.1063,-1.68536 12.3636,-2.52667 14.94334,-3.27128 -0.0242,2.83375 -0.0737,5.66278 -0.15132,8.50626 -0.17146,6.28174 0.19151,11.40013 -0.25374,17.68612 -5.04002,1.12389 -11.34916,2.42054 -18.61479,3.852 -21.91261,4.92636 -45.92908,11.10669 -80.95182,24.07338 0.33615,-9.01648 0.14602,-17.88218 0.71864,-26.68724 z"
       fill="#251e13"
       id="path14"
       transform="matrix(1.6804449,0,0,1.5468965,-433.81227,-142.48497)"
       sodipodi:nodetypes="ccsccccccsccccccccsccscscscccc" />
    <mask
       id="path-12-outside-3_0_1"
       maskUnits="userSpaceOnUse"
       x="169"
       y="684"
       width="728"
       height="156"
       fill="#000000">
      <rect
         fill="#ffffff"
         x="169"
         y="684"
         width="728"
         height="156"
         id="rect15" />
      <path
         d="m 201,822.8 1.6,-8.6 c 6.267,-0.533 10.8,-1.333 13.6,-2.4 2.8,-1.2 4.533,-3.4 5.2,-6.6 0.8,-3.333 1.2,-8.533 1.2,-15.6 v -87.2 c -7.733,0.267 -13.867,0.667 -18.4,1.2 -4.4,0.4 -7.667,1.4 -9.8,3 -2.133,1.467 -3.667,3.867 -4.6,7.2 -0.933,3.333 -1.8,7.933 -2.6,13.8 l -9.4,0.8 c 0.533,-3.867 1,-7.867 1.4,-12 0.4,-4.133 0.733,-8.133 1,-12 0.267,-4 0.467,-7.533 0.6,-10.6 l 1.8,-1.6 16.6,2.2 h 62 l 17,-2.2 1.8,1.6 c 0.133,3.067 0.333,6.6 0.6,10.6 0.267,3.867 0.6,7.8 1,11.8 0.533,4 1,7.8 1.4,11.4 l -9.4,0.8 c -0.933,-6 -1.933,-10.667 -3,-14 -0.933,-3.467 -2.467,-5.933 -4.6,-7.4 -2,-1.6 -5.067,-2.667 -9.2,-3.2 -4.133,-0.533 -9.8,-1 -17,-1.4 -0.4,4 -0.8,9.733 -1.2,17.2 -0.4,7.467 -0.733,15.867 -1,25.2 -0.267,9.2 -0.533,18.6 -0.8,28.2 -0.133,9.6 -0.2,18.467 -0.2,26.6 0,4.933 0.867,8.467 2.6,10.6 1.733,2 4.667,3 8.8,3 4,0 7.667,-0.2 11,-0.6 l 0.6,0.8 -1.8,9.2 c -2.8,-0.133 -6.067,-0.267 -9.8,-0.4 -3.733,0 -7.4,-0.067 -11,-0.2 -3.467,0 -6.333,0 -8.6,0 -2.133,0 -4.867,0 -8.2,0 -3.2,0.133 -6.533,0.267 -10,0.4 -3.333,0.133 -6.4,0.267 -9.2,0.4 z m 145.502,1.2 -0.6,-1.4 0.8,-7.8 c 4.666,-0.4 8.266,-0.867 10.8,-1.4 2.533,-0.533 4.333,-1.267 5.4,-2.2 1.066,-1.067 1.6,-2.4 1.6,-4 0,-1.333 -0.134,-2.8 -0.4,-4.4 -0.267,-1.6 -0.734,-3.333 -1.4,-5.2 l -6.6,-21.8 c -2.4,-0.133 -5.8,-0.2 -10.2,-0.2 -4.267,0 -7.8,0 -10.6,0 -3.867,0 -7.934,0.2 -12.2,0.6 -4.134,0.4 -7.334,0.733 -9.6,1 l -7.4,20.8 c -1.2,3.6 -1.8,6.2 -1.8,7.8 0,2.933 0.933,5.067 2.8,6.4 2,1.2 5.066,1.8 9.2,1.8 h 11.4 l 0.4,0.8 -1.2,8.6 c 0,0 -1.4,-0.133 -4.2,-0.4 -2.8,-0.267 -6.334,-0.533 -10.6,-0.8 -4.267,-0.133 -8.6,-0.2 -13,-0.2 -3.2,0 -6.534,0 -10,0 -3.334,0.133 -6.2,0.267 -8.6,0.4 -2.267,0.133 -3.4,0.2 -3.4,0.2 l 1.6,-9.4 c 3.733,-0.4 6.733,-1.667 9,-3.8 2.266,-2.133 4.466,-6 6.6,-11.6 l 39,-102.2 12.6,-3.4 h 1.6 c 0,0 0.4,1.6 1.2,4.8 0.933,3.067 2.133,7.4 3.6,13 1.6,5.467 3.4,11.8 5.4,19 2.133,7.067 4.333,14.6 6.6,22.6 2.4,8 4.866,16.133 7.4,24.4 2.533,8.133 5.066,15.933 7.6,23.4 1.6,4.933 3.733,8.4 6.4,10.4 2.8,2 7.066,3.267 12.8,3.8 l 0.4,0.8 -1.4,8.2 c 0,0 -1.334,-0.067 -4,-0.2 -2.534,-0.133 -5.467,-0.267 -8.8,-0.4 -3.334,0 -6.134,0 -8.4,0 -5.067,0 -9.934,0.133 -14.6,0.4 -4.534,0.4 -8.2,0.733 -11,1 -2.8,0.4 -4.2,0.6 -4.2,0.6 z m -29.4,-56.6 h 17.6 c 2.666,0 5.866,-0.133 9.6,-0.4 3.733,-0.267 6.733,-0.467 9,-0.6 l -15.8,-52.4 h -1.4 z m 122.998,58 c 0,0 -0.467,-1.467 -1.4,-4.4 -0.933,-3.067 -2.2,-7.267 -3.8,-12.6 -1.6,-5.333 -3.533,-11.533 -5.8,-18.6 -2.267,-7.2 -4.667,-14.933 -7.2,-23.2 -2.533,-8.267 -5.2,-16.8 -8,-25.6 -2.8,-8.8 -5.6,-17.533 -8.4,-26.2 -1.2,-3.867 -3.267,-6.667 -6.2,-8.4 -2.933,-1.867 -7,-2.867 -12.2,-3 l -0.4,-0.8 1.4,-8.6 c 0,0 0.867,0.067 2.6,0.2 1.733,0 3.867,0.067 6.4,0.2 2.533,0 5.067,0.067 7.6,0.2 2.667,0 4.867,0 6.6,0 2.667,0 5.667,-0.067 9,-0.2 3.467,-0.267 6.8,-0.533 10,-0.8 3.2,-0.4 5.8,-0.667 7.8,-0.8 2.133,-0.267 3.2,-0.4 3.2,-0.4 l 0.6,1.4 -0.8,7.8 c -4.667,0.267 -8.333,0.733 -11,1.4 -2.533,0.533 -4.333,1.333 -5.4,2.4 -0.933,1.067 -1.4,2.6 -1.4,4.6 0,0.933 0.467,3.333 1.4,7.2 0.933,3.733 2.133,8.4 3.6,14 1.467,5.467 3.067,11.467 4.8,18 1.867,6.4 3.667,12.733 5.4,19 1.867,6.267 3.533,12 5,17.2 1.467,5.2 2.667,9.4 3.6,12.6 0.933,3.067 1.4,4.6 1.4,4.6 h 1.8 c 1.733,-4.533 3.733,-9.733 6,-15.6 2.267,-6 4.667,-12.267 7.2,-18.8 2.533,-6.533 4.933,-13 7.2,-19.4 2.4,-6.4 4.533,-12.267 6.4,-17.6 2,-5.467 3.533,-10 4.6,-13.6 1.2,-3.733 1.8,-6.067 1.8,-7 0,-2.8 -1.067,-4.8 -3.2,-6 -2.133,-1.333 -5.667,-2 -10.6,-2 h -10.4 l -0.4,-0.8 1.2,-8.6 c 0,0 1.467,0.133 4.4,0.4 2.933,0.133 6.6,0.333 11,0.6 4.4,0.267 8.8,0.4 13.2,0.4 3.2,0 6.467,0 9.8,0 3.467,-0.133 6.333,-0.267 8.6,-0.4 2.4,-0.133 3.6,-0.2 3.6,-0.2 l -1.6,9.4 c -4.133,0.133 -7,0.8 -8.6,2 -1.6,1.2 -3.133,3.733 -4.6,7.6 l -43,108 z m 82.07,-1.4 1.2,-9.2 c 6,-0.8 10.067,-2.333 12.2,-4.6 2.267,-2.4 3.4,-6.467 3.4,-12.2 l 0.2,-84 c 0,-4.267 -0.466,-7.133 -1.4,-8.6 -0.933,-1.467 -2.933,-2.2 -6,-2.2 -0.8,0 -1.866,0.067 -3.2,0.2 -1.333,0 -2.533,0.067 -3.6,0.2 l -0.4,-0.8 1.4,-8.8 c 2.267,0 5,0.067 8.2,0.2 3.2,0.133 6.534,0.267 10,0.4 3.467,0 6.667,0 9.6,0 10.667,0 19.6,-0.067 26.8,-0.2 7.334,-0.133 13.6,-0.4 18.8,-0.8 5.2,-0.4 10,-0.867 14.4,-1.4 l 0.6,1.2 c -0.666,3.2 -1.333,6.8 -2,10.8 -0.666,3.867 -1.2,7.733 -1.6,11.6 -0.4,3.867 -0.733,7.467 -1,10.8 l -9.6,0.8 c 0.134,-1.2 0.2,-2.667 0.2,-4.4 0.134,-1.867 0.2,-3.267 0.2,-4.2 0,-3.2 -0.333,-5.733 -1,-7.6 -0.533,-2 -1.8,-3.467 -3.8,-4.4 -1.866,-0.933 -4.866,-1.533 -9,-1.8 -4.133,-0.267 -9.733,-0.4 -16.8,-0.4 -4.266,0 -7.4,0.133 -9.4,0.4 -2,0.267 -3.266,0.933 -3.8,2 -0.4,1.067 -0.666,2.867 -0.8,5.4 l -2,46.6 -0.8,42 c 0,3.6 0.334,6.267 1,8 0.667,1.6 2.067,2.667 4.2,3.2 2.267,0.533 5.8,0.8 10.6,0.8 7.867,0 14.2,-0.267 19,-0.8 4.8,-0.533 8.467,-1.6 11,-3.2 2.534,-1.6 4.4,-4 5.6,-7.2 1.2,-3.333 2.2,-7.733 3,-13.2 l 8.8,-1 0.6,1 c -0.933,4.133 -1.933,9.4 -3,15.8 -0.933,6.4 -1.733,12.333 -2.4,17.8 l -1,1.2 c -8,-0.267 -16,-0.533 -24,-0.8 -7.866,-0.133 -15,-0.267 -21.4,-0.4 -6.4,-0.133 -11.466,-0.2 -15.2,-0.2 -4.133,0 -8.866,0.133 -14.2,0.4 -5.2,0.4 -9.733,0.933 -13.6,1.6 z m 29,-60.8 1.8,-12 c 0.934,0 2.734,0 5.4,0 2.667,0 5.534,0.067 8.6,0.2 3.067,0 5.734,0 8,0 2.267,0 5.734,-0.2 10.4,-0.6 4.8,-0.533 9.467,-1.067 14,-1.6 l 0.8,1 -2.8,11.8 c -3.733,-0.133 -8.4,-0.267 -14,-0.4 -5.466,-0.133 -10.133,-0.2 -14,-0.2 -2.533,0 -5.533,0.2 -9,0.6 -3.333,0.267 -6.4,0.667 -9.2,1.2 z m 179.964,62 c -3.333,0 -6.933,-1.733 -10.8,-5.2 -3.733,-3.467 -7.2,-8.067 -10.4,-13.8 l -21.4,-38.8 h -16.6 l -0.6,29.8 c 0,4.8 0.267,8.4 0.8,10.8 0.667,2.267 2,3.8 4,4.6 2.134,0.667 5.334,1 9.6,1 l 0.4,0.8 -1.8,8.4 c 0,0 -0.666,-0.067 -2,-0.2 -1.333,0 -3.066,-0.067 -5.2,-0.2 -2,0 -4.266,-0.067 -6.8,-0.2 -2.4,0 -4.8,0 -7.2,0 -3.333,-0.133 -6.8,-0.133 -10.4,0 -3.466,0.133 -6.466,0.267 -9,0.4 -2.4,0.133 -3.6,0.2 -3.6,0.2 l 1.8,-9 c 6.267,-0.667 10.334,-2 12.2,-4 2,-2.133 3,-6.067 3,-11.8 l 0.2,-84 c 0,-4.267 -0.533,-7.133 -1.6,-8.6 -0.933,-1.467 -2.866,-2.2 -5.8,-2.2 -1.2,0 -2.666,0.067 -4.4,0.2 -1.6,0.133 -2.4,0.2 -2.4,0.2 l -0.4,-0.8 1.4,-8.8 c 0,0 0.734,0.067 2.2,0.2 1.6,0 3.6,0.067 6,0.2 2.4,0 4.867,0.067 7.4,0.2 2.534,0 4.734,0 6.6,0 1.734,0 3.934,0 6.6,0 2.8,-0.133 5.534,-0.267 8.2,-0.4 2.8,-0.133 5.134,-0.2 7,-0.2 1.867,-0.133 2.8,-0.2 2.8,-0.2 12.4,0 22.2,2.8 29.4,8.4 7.2,5.6 10.8,13.267 10.8,23 0,8 -2.6,15.333 -7.8,22 -5.066,6.667 -12.266,12.133 -21.6,16.4 l 22,34.8 c 3.867,6.267 7.6,10.667 11.2,13.2 3.734,2.533 8.267,3.8 13.6,3.8 l 0.8,0.8 -1.2,6.8 z m -38.2,-67 c 0,0 1.067,-0.4 3.2,-1.2 2.267,-0.933 4.8,-2.467 7.6,-4.6 2.8,-2.133 5.267,-5.133 7.4,-9 2.267,-3.867 3.4,-8.733 3.4,-14.6 0,-8.8 -3.066,-15.4 -9.2,-19.8 -6,-4.4 -15.133,-6.6 -27.4,-6.6 -1.333,0 -2.266,0.333 -2.8,1 -0.4,0.533 -0.666,1.733 -0.8,3.6 -0.533,10.533 -1,19.6 -1.4,27.2 -0.266,7.6 -0.466,14.933 -0.6,22 z M 865,830 c -9.733,-15.2 -19.067,-29.467 -28,-42.8 -8.933,-13.333 -16.867,-25 -23.8,-35 -6.933,-10.133 -12.467,-18.067 -16.6,-23.8 -4,-5.733 -6,-8.6 -6,-8.6 h -1 l -1,85.4 c 0,2.933 0.467,5 1.4,6.2 0.933,1.2 2.533,1.8 4.8,1.8 0.667,0 1.8,0 3.4,0 1.733,-0.133 3.267,-0.2 4.6,-0.2 1.467,0 2.2,0 2.2,0 l 0.4,0.8 -1.8,9 c 0,0 -0.733,-0.067 -2.2,-0.2 -1.333,0 -3.067,-0.067 -5.2,-0.2 -2.133,-0.133 -4.467,-0.267 -7,-0.4 -2.4,0 -4.667,0 -6.8,0 -2.667,0 -5.467,0.133 -8.4,0.4 -2.8,0.267 -5.2,0.533 -7.2,0.8 -2,0.267 -3,0.4 -3,0.4 l 1,-9.2 c 4.133,-0.533 7.2,-1.733 9.2,-3.6 2,-1.867 3.067,-4.867 3.2,-9 l 2.6,-87.4 c 0,-4.133 -1.267,-7.067 -3.8,-8.8 -2.4,-1.733 -6.933,-2.933 -13.6,-3.6 l -0.6,-1 1.6,-7.4 c 0,0 1,0.067 3,0.2 2.133,0.133 4.533,0.333 7.2,0.6 2.8,0.133 5.133,0.2 7,0.2 2.267,0 4.4,-0.067 6.4,-0.2 2,-0.133 3.667,-0.267 5,-0.4 1.333,-0.133 2,-0.2 2,-0.2 6.667,10.267 13.2,20.267 19.6,30 6.533,9.733 12.667,18.8 18.4,27.2 5.733,8.4 10.8,15.733 15.2,22 4.4,6.267 7.8,11.2 10.2,14.8 2.533,3.467 3.8,5.2 3.8,5.2 h 1 v -81 c 0,-2.933 -0.533,-5.067 -1.6,-6.4 -1.067,-1.467 -2.733,-2.2 -5,-2.2 -1.733,0 -3.467,0.067 -5.2,0.2 -1.6,0 -2.4,0 -2.4,0 l -0.4,-0.8 1.8,-9 c 0,0 0.667,0.067 2,0.2 1.333,0 3,0.067 5,0.2 2,0.133 4.067,0.267 6.2,0.4 2.133,0 4.067,0 5.8,0 2.8,0 5.733,-0.133 8.8,-0.4 3.067,-0.267 5.667,-0.533 7.8,-0.8 2.133,-0.267 3.2,-0.4 3.2,-0.4 l -1,9.2 c -4.533,0.533 -7.933,1.8 -10.2,3.8 -2.133,2 -3.267,4.933 -3.4,8.8 l -2.8,112.4 z"
         id="path16" />
    </mask>
  </g>
  <defs
     id="defs18">
    <inkscape:path-effect
       effect="perspective-envelope"
       up_left_point="624.64091,241.81486"
       up_right_point="729.18836,241.81486"
       down_left_point="626.24,509.09518"
       down_right_point="729.18836,509.09518"
       id="path-effect3"
       is_visible="true"
       lpeversion="1"
       deform_type="envelope_deformation"
       horizontal_mirror="true"
       vertical_mirror="true"
       overflow_perspective="true" />
    <inkscape:path-effect
       effect="envelope"
       id="path-effect2"
       is_visible="true"
       lpeversion="1"
       yy="true"
       xx="true"
       bendpath1="M 207.71666,246.67329 474.414,234.04528"
       bendpath2="m 507.01443,221.37261 c -8.49491,162.0802 -7.24034,306.65299 -14.90102,447.87502"
       bendpath3="M 227.27094,700.60304 C 385.19179,676.29062 476.5522,679.2184 490.56829,674.8629"
       bendpath4="m 175.54545,242.68279 c 13.31245,145.82376 26.08492,295.06988 43.26036,444.75663"
       bendpath1-nodetypes="cc"
       bendpath2-nodetypes="cc"
       bendpath4-nodetypes="cc"
       bendpath3-nodetypes="cc" />
    <inkscape:path-effect
       effect="envelope"
       id="path-effect1"
       is_visible="true"
       lpeversion="1"
       yy="true"
       xx="true"
       bendpath1="m 613.93916,243.385 c 48.2941,-7.83887 79.39415,-7.25121 129.63861,-3.98473"
       bendpath2="m 709.48895,245.19624 c 3.90246,23.42806 29.09046,176.53622 16.87224,268.43253"
       bendpath3="M 622.20312,509.2818 H 742.20044"
       bendpath4="m 622.54745,238.31353 c 10.20175,94.08715 1.85919,221.06061 5.5093,270.96827"
       bendpath1-nodetypes="cc"
       bendpath2-nodetypes="cc"
       bendpath4-nodetypes="cc" />
    <clipPath
       id="clip0_0_1">
      <rect
         width="1116"
         height="947"
         fill="white"
         id="rect18" />
    </clipPath>
  </defs>
</svg>
